# Airship Model
# Blimp/zeppelin with correct normals

# ===== MAIN BODY (elongated ellipsoid) =====
# Front tip
v 0.0 0.0 1.8

# Front section ring
v  0.3  0.0  1.4
v  0.21 0.21 1.4
v  0.0  0.3  1.4
v -0.21 0.21 1.4
v -0.3  0.0  1.4
v -0.21 -0.21 1.4
v  0.0 -0.3  1.4
v  0.21 -0.21 1.4

# Middle front ring
v  0.5  0.0  0.8
v  0.35 0.35 0.8
v  0.0  0.5  0.8
v -0.35 0.35 0.8
v -0.5  0.0  0.8
v -0.35 -0.35 0.8
v  0.0 -0.5  0.8
v  0.35 -0.35 0.8

# Center ring (widest)
v  0.6  0.0  0.0
v  0.42 0.42 0.0
v  0.0  0.6  0.0
v -0.42 0.42 0.0
v -0.6  0.0  0.0
v -0.42 -0.42 0.0
v  0.0 -0.6  0.0
v  0.42 -0.42 0.0

# Middle back ring
v  0.5  0.0 -0.8
v  0.35 0.35 -0.8
v  0.0  0.5 -0.8
v -0.35 0.35 -0.8
v -0.5  0.0 -0.8
v -0.35 -0.35 -0.8
v  0.0 -0.5 -0.8
v  0.35 -0.35 -0.8

# Back section ring
v  0.3  0.0 -1.2
v  0.21 0.21 -1.2
v  0.0  0.3 -1.2
v -0.21 0.21 -1.2
v -0.3  0.0 -1.2
v -0.21 -0.21 -1.2
v  0.0 -0.3 -1.2
v  0.21 -0.21 -1.2

# Back tip
v 0.0 0.0 -1.5

# ===== GONDOLA (cabin) =====
v -0.2 -0.7  0.2
v  0.2 -0.7  0.2
v  0.2 -0.7 -0.2
v -0.2 -0.7 -0.2
v -0.2 -0.5  0.2
v  0.2 -0.5  0.2
v  0.2 -0.5 -0.2
v -0.2 -0.5 -0.2

# ===== NORMALS =====
# Forward
vn 0.0 0.0 1.0
# Backward
vn 0.0 0.0 -1.0
# Right
vn 1.0 0.0 0.0
# Left
vn -1.0 0.0 0.0
# Up
vn 0.0 1.0 0.0
# Down
vn 0.0 -1.0 0.0

# Diagonal normals for body
vn  0.707  0.707  0.0
vn -0.707  0.707  0.0
vn -0.707 -0.707  0.0
vn  0.707 -0.707  0.0

# Forward-diagonal
vn  0.5  0.0  0.866
vn  0.35 0.35 0.866
vn  0.0  0.5  0.866
vn -0.35 0.35 0.866
vn -0.5  0.0  0.866
vn -0.35 -0.35 0.866
vn  0.0 -0.5  0.866
vn  0.35 -0.35 0.866

# Back-diagonal
vn  0.5  0.0 -0.866
vn  0.35 0.35 -0.866
vn  0.0  0.5 -0.866
vn -0.35 0.35 -0.866
vn -0.5  0.0 -0.866
vn -0.35 -0.35 -0.866
vn  0.0 -0.5 -0.866
vn  0.35 -0.35 -0.866

# ===== BODY FACES =====
# Front cap (tip to first ring)
f 1//1 2//11 3//12
f 1//1 3//12 4//13
f 1//1 4//13 5//14
f 1//1 5//14 6//15
f 1//1 6//15 7//16
f 1//1 7//16 8//17
f 1//1 8//17 9//18
f 1//1 9//18 2//11

# Front section
f 2//3 10//3 11//7 3//7
f 3//7 11//7 12//5 4//5
f 4//5 12//5 13//8 5//8
f 5//8 13//8 14//4 6//4
f 6//4 14//4 15//9 7//9
f 7//9 15//9 16//6 8//6
f 8//6 16//6 17//10 9//10
f 9//10 17//10 10//3 2//3

# Middle front section
f 10//3 18//3 19//7 11//7
f 11//7 19//7 20//5 12//5
f 12//5 20//5 21//8 13//8
f 13//8 21//8 22//4 14//4
f 14//4 22//4 23//9 15//9
f 15//9 23//9 24//6 16//6
f 16//6 24//6 25//10 17//10
f 17//10 25//10 18//3 10//3

# Center to back section
f 18//3 26//3 27//7 19//7
f 19//7 27//7 28//5 20//5
f 20//5 28//5 29//8 21//8
f 21//8 29//8 30//4 22//4
f 22//4 30//4 31//9 23//9
f 23//9 31//9 32//6 24//6
f 24//6 32//6 33//10 25//10
f 25//10 33//10 26//3 18//3

# Back section
f 26//19 34//19 35//20 27//20
f 27//20 35//20 36//21 28//21
f 28//21 36//21 37//22 29//22
f 29//22 37//22 38//23 30//23
f 30//23 38//23 39//24 31//24
f 31//24 39//24 40//25 32//25
f 32//25 40//25 41//26 33//26
f 33//26 41//26 34//19 26//19

# Back cap
f 42//2 35//19 34//19
f 42//2 36//20 35//20
f 42//2 37//21 36//21
f 42//2 38//22 37//22
f 42//2 39//23 38//23
f 42//2 40//24 39//24
f 42//2 41//25 40//25
f 42//2 34//26 41//26

# ===== GONDOLA FACES =====
# Bottom
f 43//6 44//6 45//6 46//6
# Top
f 47//5 50//5 49//5 48//5
# Front
f 43//1 44//1 48//1 47//1
# Right
f 44//3 45//3 49//3 48//3
# Back
f 45//2 46//2 50//2 49//2
# Left
f 46//4 43//4 47//4 50//4
